<svg width="240" height="240" viewBox="0 0 240 240" fill="none" xmlns="http://www.w3.org/2000/svg">
<g clip-path="url(#clip0_1006_29)">
<path d="M61.7874 189.447C52.0853 181.276 50.5534 169.532 46.4683 159.319C43.9151 152.681 39.3194 147.064 34.7236 141.447C40.8513 158.808 37.2768 171.064 52.0853 183.319C49.5321 182.298 46.9789 180.255 44.9364 178.723C33.1917 169.021 15.83 167.489 8.68106 151.659C10.7236 163.404 19.9151 173.617 29.6172 180.255C39.3194 186.383 51.5747 185.872 61.7874 189.447ZM87.3194 195.574C88.8513 195.064 90.8938 195.064 92.9364 194.553C85.7874 193.532 79.1491 190.979 74.0428 186.383C66.3832 179.234 59.7449 172.085 51.5747 166.468C60.2555 183.83 63.3194 190.979 77.6172 194.042C77.6172 194.042 73.5321 193.532 71.4896 193.021C56.1704 189.957 37.7874 194.042 26.5534 181.276C31.1491 189.447 39.83 196.085 48.0002 199.149C61.2768 203.234 75.064 198.638 87.3194 195.574ZM107.745 194.553C83.2343 194.553 70.4683 216 46.4683 201.702C58.213 216 77.1066 217.021 92.4257 207.319C98.5534 203.234 104.17 197.617 111.83 197.617C123.575 197.617 136.341 209.872 147.064 221.106C149.107 219.574 150.639 218.042 152.17 216.511C140.936 205.787 124.596 194.553 107.745 194.553ZM38.8087 170.553C38.8087 170.553 35.7449 164.936 34.7236 161.362C31.1491 147.574 33.1917 130.723 27.064 117.447C28.0853 125.106 25.0215 131.745 24.5108 138.894C23.4896 148.596 27.064 155.234 29.6172 159.83C29.6172 159.83 26.0428 155.234 24.5108 152.681C17.3619 141.447 2.5534 133.787 1.53212 120C-0.510431 150.128 20.4257 158.298 38.8087 170.553ZM31.6598 81.1914C33.7023 77.1063 34.7236 71.9999 35.7449 67.4041C34.7236 69.4467 33.7023 71.4893 32.1704 73.0212C22.4683 81.1914 16.8513 85.7871 14.2981 98.5531L15.3194 87.319C16.3406 76.085 10.213 63.8297 16.8513 54.1276C10.213 61.2765 6.63851 70.468 6.63851 79.6595C6.63851 91.9148 13.7874 100.596 14.2981 112.34C16.3406 100.085 26.5534 91.4041 31.6598 81.1914ZM28.0853 58.7233C32.6811 54.6382 38.2981 51.0637 42.3832 45.9573C46.9789 39.8297 51.064 32.6807 57.1917 27.0637C49.0215 30.6382 39.83 33.702 34.213 42.3829C31.1491 47.4893 30.6385 53.6169 28.0853 58.7233ZM17.8725 83.2339C19.9151 79.1488 23.4896 75.0637 27.064 71.9999C36.2555 65.3616 45.447 56.6807 45.9577 45.4467C40.8513 57.702 25.0215 59.7446 21.447 72.5105C21.447 72.5105 23.4896 64.851 24.0002 63.319C26.5534 54.6382 26.0428 44.4254 34.7236 38.8084C17.8725 42.3829 16.8513 60.7658 17.8725 74.5531C17.8725 77.6169 18.3832 80.1701 17.8725 83.2339ZM20.4257 142.468C20.4257 142.468 19.4045 132.766 20.9364 128.681C25.0215 116.425 29.1066 103.149 28.596 90.3829C24.5108 105.702 11.7449 110.808 17.3619 131.745C15.3194 127.659 14.8087 123.064 13.2768 118.979C10.213 107.745 1.53212 98.0424 4.08531 84.7658C0.000207782 96.5105 0.000207782 105.702 4.08531 117.957C6.63851 127.149 15.83 133.787 20.4257 142.468Z" fill="#D69D36"/>
<path d="M178.213 189.447C187.915 181.276 189.447 169.532 193.532 159.319C196.085 152.681 200.681 147.064 205.276 141.447C199.149 158.808 202.723 171.064 187.915 183.319C190.468 182.298 193.021 180.255 195.064 178.723C206.808 169.021 224.17 167.489 231.319 151.659C229.276 163.404 220.085 173.617 210.383 180.255C200.681 186.383 188.425 185.872 178.213 189.447ZM152.681 195.574C151.149 195.064 149.106 195.064 147.064 194.553C154.213 193.532 160.851 190.979 165.957 186.383C173.617 179.234 180.255 172.085 188.425 166.468C179.744 183.83 176.681 190.979 162.383 194.042C162.383 194.042 166.468 193.532 168.51 193.021C183.83 189.957 202.213 194.042 213.447 181.276C208.851 189.447 200.17 196.085 192 199.149C178.723 203.234 164.936 198.638 152.681 195.574ZM132.255 194.553C156.766 194.553 169.532 216 193.532 201.702C181.787 216 162.893 217.021 147.574 207.319C141.447 203.234 135.83 197.617 128.17 197.617C116.425 197.617 103.659 209.872 92.936 221.106C90.8934 219.574 89.3615 218.042 87.8296 216.511C99.0636 205.787 115.404 194.553 132.255 194.553ZM201.191 170.553C201.191 170.553 204.255 164.936 205.276 161.362C208.851 147.574 206.808 130.723 212.936 117.447C211.915 125.106 214.979 131.745 215.489 138.894C216.51 148.596 212.936 155.234 210.383 159.83C210.383 159.83 213.957 155.234 215.489 152.681C222.638 141.447 237.447 133.787 238.468 120C240.51 150.128 219.574 158.298 201.191 170.553ZM208.34 81.1914C206.298 77.1063 205.276 71.9999 204.255 67.4041C205.276 69.4467 206.298 71.4893 207.83 73.0212C217.532 81.1914 223.149 85.7871 225.702 98.5531L224.681 87.319C223.659 76.085 229.787 63.8297 223.149 54.1276C229.787 61.2765 233.361 70.468 233.361 79.6595C233.361 91.9148 226.213 100.596 225.702 112.34C223.659 100.085 213.447 91.4041 208.34 81.1914ZM211.915 58.7233C207.319 54.6382 201.702 51.0637 197.617 45.9573C193.021 39.8297 188.936 32.6807 182.808 27.0637C190.979 30.6382 200.17 33.702 205.787 42.3829C208.851 47.4893 209.361 53.6169 211.915 58.7233ZM222.127 83.2339C220.085 79.1488 216.51 75.0637 212.936 71.9999C203.744 65.3616 194.553 56.6807 194.042 45.4467C199.149 57.702 214.979 59.7446 218.553 72.5105C218.553 72.5105 216.51 64.851 216 63.319C213.447 54.6382 213.957 44.4254 205.276 38.8084C222.127 42.3829 223.149 60.7658 222.127 74.5531C222.127 77.6169 221.617 80.1701 222.127 83.2339ZM219.574 142.468C219.574 142.468 220.596 132.766 219.064 128.681C214.979 116.425 210.893 103.149 211.404 90.3829C215.489 105.702 228.255 110.808 222.638 131.745C224.681 127.659 225.191 123.064 226.723 118.979C229.787 107.745 238.468 98.0424 235.915 84.7658C240 96.5105 240 105.702 235.915 117.957C233.361 127.149 224.17 133.787 219.574 142.468Z" fill="#D69D36"/>
<path d="M120 186.383C165.969 186.383 203.234 149.118 203.234 103.149C203.234 57.1799 165.969 19.9148 120 19.9148C74.0308 19.9148 36.7656 57.1799 36.7656 103.149C36.7656 149.118 74.0308 186.383 120 186.383Z" stroke="#D69D36" stroke-width="4"/>
<path d="M119.999 169.021C156.38 169.021 185.872 139.529 185.872 103.149C185.872 66.7687 156.38 37.2766 119.999 37.2766C83.619 37.2766 54.127 66.7687 54.127 103.149C54.127 139.529 83.619 169.021 119.999 169.021Z" stroke="#D69D36" stroke-width="4"/>
<path d="M120 153.191C147.637 153.191 170.042 130.786 170.042 103.149C170.042 75.511 147.637 53.1062 120 53.1062C92.3618 53.1062 69.957 75.511 69.957 103.149C69.957 130.786 92.3618 153.191 120 153.191Z" stroke="#D69D36" stroke-width="4"/>
<path d="M119.999 135.83C138.048 135.83 152.68 121.198 152.68 103.149C152.68 85.0997 138.048 70.468 119.999 70.468C101.95 70.468 87.3184 85.0997 87.3184 103.149C87.3184 121.198 101.95 135.83 119.999 135.83Z" stroke="#D69D36" stroke-width="4"/>
<path d="M120 120C129.306 120 136.851 112.456 136.851 103.149C136.851 93.8423 129.306 86.2979 120 86.2979C110.693 86.2979 103.148 93.8423 103.148 103.149C103.148 112.456 110.693 120 120 120Z" stroke="#D69D36" stroke-width="4"/>
<path d="M120 19.9148V86.2978M120 120V186.383M61.2763 44.4254L108.255 91.4042M131.744 114.894L178.723 161.872M36.7656 103.149H103.149M136.851 103.149H203.234M61.2763 161.872L108.255 114.894M131.744 91.4042L178.723 44.4254" stroke="#D69D36" stroke-width="4"/>
<path d="M115.966 123.676C116.17 123.268 116.579 121.634 117.089 122.145C117.6 122.655 117.906 122.145 117.906 122.145C117.906 122.145 118.162 122.4 118.009 122.911C117.906 123.421 117.753 123.932 117.447 124.034C117.141 124.085 116.885 124.289 116.477 124.34C116.17 124.391 115.966 123.676 115.966 123.676ZM120.153 123.013C120.255 122.911 120.409 123.421 120.664 123.319C120.919 123.268 121.021 123.779 120.766 123.779C120.511 123.779 120.511 124.085 120.511 124.238C120.511 124.391 120.511 124.698 120.306 124.902C120.102 125.106 119.949 124.953 119.694 124.851C119.438 124.698 119.336 124.698 118.979 124.698C118.672 124.698 118.928 125.208 118.928 125.208C118.928 125.208 117.6 125.157 117.855 124.953C118.111 124.749 118.366 124.698 118.162 124.545C117.958 124.391 118.162 124.289 118.162 124.034C118.162 123.779 118.775 123.881 118.621 123.728C118.417 123.523 118.621 122.808 118.928 123.217L119.132 122.757C118.928 122.553 119.081 122.502 118.672 122.349C118.315 122.196 118.621 121.43 118.621 121.43L118.672 120.919C118.775 120.255 120.051 120.204 120.153 120.766C120.204 121.328 120.153 121.736 120.153 121.736L120.511 121.889C120.511 121.889 120.46 122.298 120.153 122.298C119.847 122.298 120.153 122.502 119.949 122.706L120.153 123.013ZM167.183 91.9658C166.826 92.3233 166.06 92.4765 166.06 92.4765L165.804 93.4467L165.396 93.8041C165.396 93.8041 165.498 94.0594 165.396 94.6722C165.294 95.285 164.528 95.6424 164.528 95.6424L164.17 96.0509C164.17 96.0509 162.128 96.1531 161.872 96.0509C161.106 95.6935 161.617 94.6722 162.128 94.7743C162.638 94.8765 162.026 93.2935 162.026 93.2935L162.689 93.1914C162.689 93.1914 162.792 91.6594 163.047 91.6594C163.302 91.6594 162.945 91.1488 162.638 90.8935C162.281 90.6382 161.872 89.7701 161.515 89.8722C161.158 89.9743 159.83 89.8722 159.83 89.8722L159.575 90.3828L158.655 90.536C158.655 90.536 158.758 91.1999 158.553 91.4041C158.043 92.0169 156.102 93.2935 156.919 91.1488L157.175 90.6382V89.8722L155.643 89.7701C155.643 89.7701 154.877 89.5148 154.877 89.1573C154.877 88.7999 154.775 88.3914 154.775 88.3914L152.987 86.3999L150.843 86.1446L150.689 85.736L149.413 85.5829C147.881 84.8169 146.502 85.4807 146.758 86.8084C147.013 88.085 147.421 88.5956 146.604 88.5956C145.736 88.5956 145.583 87.9318 145.583 87.9318C145.583 87.9318 144.919 87.6765 144.919 88.0339C144.919 88.3914 144.664 89.0552 144.919 89.4126C145.175 89.7701 144.562 90.2807 144.306 90.0254C144.051 89.7701 143.387 89.0041 143.541 88.7488C143.694 88.4935 142.366 86.8594 143.694 86.6041C145.072 86.3488 143.592 85.5829 144.102 85.3786L144.766 85.0211H145.43L145.838 84.6637L144.715 84.5105L144.051 84.4084L142.775 84.3063C141.498 85.1743 141.243 86.1956 141.243 86.1956C140.579 87.4722 138.945 85.685 139.558 84.9701C140.17 84.2552 137.668 84.868 137.26 85.2254C136.851 85.5829 135.575 85.3786 135.575 85.3786C135.319 86.1446 134.145 85.2765 134.451 84.7658C134.809 84.2552 134.809 83.8977 134.809 83.8977L134.4 83.7956L133.889 84.7658C132.715 84.7658 132.358 85.4297 132.613 85.8892C132.868 86.2977 132.255 85.7871 132.102 86.3999C131.949 87.0126 132.204 87.0126 132.715 87.268C133.226 87.5233 132.46 87.5233 132.817 87.9318C133.175 88.3403 134.196 87.9318 133.583 88.5446C132.97 89.1573 131.796 88.902 131.796 88.902C131.694 89.668 130.111 89.5148 129.906 89.2594C129.753 89.0041 128.477 87.4722 128.477 87.4722L126.843 87.3701C126.689 86.1446 127.609 86.7573 127.966 85.8382C128.323 84.868 128.477 83.336 128.477 83.336C128.477 83.336 127.098 83.2339 127.047 83.6935C126.945 84.102 126.128 84.4084 126.128 84.4084C126.128 84.4084 125.464 84.6637 125.719 85.0211C125.975 85.3786 125.209 85.5318 125.209 85.5318C125.209 85.5318 125.362 86.0935 125.106 86.2977C124.443 87.0126 122.706 86.3999 122.451 86.1446L121.43 85.736L120.409 85.0722L119.234 85.5829L118.877 85.9403H117.6L117.498 86.9616L119.796 87.2169L119.949 89.3616L119.03 89.0552H118.417L118.162 88.5446L117.651 88.4424V90.3318L118.162 90.7403L118.57 91.1488L119.438 91.2509L119.592 92.2722L121.736 92.3743L121.992 92.7828L123.268 92.885L125.719 95.3871L125.566 96.1531L125.158 96.4084C125.311 97.0211 124.034 96.6637 124.034 96.6637V97.1743L124.647 97.2765L125.26 97.6339L126.128 96.1531C127.047 95.5403 127.506 96.4084 127.558 96.919C127.66 97.4297 127.149 97.3275 127.149 97.3275V98.5531L127.66 98.7063C128.528 99.7275 127.302 100.34 127.302 100.34L127.047 101.208C126.792 101.974 125.872 101.821 125.872 101.821L125.515 102.332L124.494 102.587L126.485 102.842C126.689 102.128 127.2 101.974 127.455 102.332C127.711 102.689 127.711 103.302 127.711 103.302L128.221 103.404L128.119 104.374L128.63 104.528V107.285L129.243 107.949C130.264 107.54 130.264 108.204 129.753 108.562C129.243 108.919 129.6 110.451 129.6 110.451L129.192 110.859V111.574L128.681 111.932V112.902C127.813 112.493 126.792 112.647 126.536 112.902C125.77 112.391 124.136 112.545 124.136 113.004C124.647 113.668 123.523 113.872 123.523 113.872L122.911 114.536C123.319 115.404 122.502 115.506 122.502 115.506V117.14L121.481 118.111L121.583 120.357C121.583 120.97 122.86 121.021 123.115 120.715C123.37 120.357 124.392 121.43 124.392 121.43H125.158L125.311 119.898L124.8 119.642V117.14L125.668 116.17C126.689 115.813 126.332 118.417 126.332 118.672C126.434 119.642 126.843 119.54 127.251 119.336C128.119 118.979 127.404 120.306 126.741 120.204C126.077 120.102 126.485 121.072 126.485 121.072L126.894 121.225L126.128 121.838L125.464 122.604L124.596 122.349L123.575 122.247L123.217 121.634L122.604 121.532L122.502 122.757L122.094 123.268L121.072 124.289C122.451 124.289 120.919 125.259 120.562 125.259C121.328 125.515 120.46 126.281 118.519 125.668V126.281L117.855 126.383L118.468 127.047L119.132 127.149L118.877 128.63C118.877 129.753 116.068 128.987 115.813 128.732L115.711 130.264L115.2 130.366L115.302 131.387L115.2 132.868L116.119 132.715V133.328L118.417 133.43L121.736 129.906L123.677 129.498C123.83 128.63 124.698 129.651 124.698 129.651C125.566 129.549 125.719 130.162 125.719 130.162L126.843 130.315C127.762 130.57 127.2 130.672 127.251 131.03C127.353 131.54 127.762 131.387 127.762 131.387L127.915 130.264L128.426 130.366L127.915 129.753L126.996 129.345L125.975 128.936C125.311 127.966 126.128 128.17 126.843 128.272H127.966C127.966 128.272 129.243 130.008 129.243 130.417C129.243 130.825 129.855 130.928 129.855 130.928L130.621 130.825L130.877 131.438H131.643L131.898 131.949H133.43L133.532 131.183L132.102 130.928L132 130.059L130.979 129.804C130.621 128.323 131.234 127.915 131.643 128.579L132.153 128.681L132 127.404L132.613 127.251L132.46 125.464L131.949 125.311V124.698L134.094 124.8C133.941 123.676 134.196 123.166 134.196 123.166H134.809L134.911 123.574L137.515 123.83L139.353 121.736C139.251 121.583 139.558 121.481 139.353 121.276C139.098 121.021 138.741 121.276 138.332 121.021C137.923 120.766 138.332 119.285 138.23 118.979C138.128 118.621 139.66 118.111 139.404 118.876C139.149 119.642 139.404 120 139.404 120C140.528 118.979 141.447 120.102 141.345 120.357C141.243 120.613 141.958 120.868 142.366 120.613C142.775 120.357 143.285 121.379 143.132 121.889C142.979 122.4 141.447 122.298 141.345 121.787C141.243 121.276 140.987 121.43 140.834 121.685C140.681 121.94 139.915 122.093 139.455 121.838C139.353 121.787 139.353 121.736 139.302 121.685L137.464 123.779H137.566C138.587 124.391 138.077 125.157 137.719 125.311C137.362 125.464 136.8 125.464 136.8 125.464L136.647 125.821L134.451 125.974L134.298 126.842C133.175 126.689 132.766 127.864 133.021 128.476C133.277 129.089 133.021 129.6 133.021 129.6L133.941 130.008L135.115 129.651C135.268 128.783 136.034 128.63 136.749 128.119C137.413 127.608 138.536 129.089 138.179 129.753C137.821 130.417 137.821 130.723 137.821 130.723L137.923 131.489L137.055 131.847L136.392 132.204L136.289 132.613H133.992L133.583 133.021L132.46 133.123L132.102 133.634L131.336 133.736C131.336 133.736 130.06 134.349 130.57 135.013C131.081 135.728 128.426 135.625 127.864 134.655C127.711 135.523 126.741 134.757 126.741 134.757L125.821 134.502L125.719 133.225C125.566 132.357 123.932 132.357 124.034 132.97C124.136 133.583 120.97 133.225 120.97 133.225L119.949 133.736L119.03 134.298L118.928 134.706L117.396 134.859L116.732 135.217L116.477 134.706H115.813L115.149 135.676C113.362 135.779 111.677 136.8 111.83 137.208C111.983 137.617 111.166 138.076 111.166 138.076L110.4 138.332L109.889 139.098L108.868 139.455L108.715 141.242L108.204 141.6V142.366L107.592 142.519V142.928L106.723 143.03L107.234 144.306L107.898 144.664C109.072 144.817 108.562 146.298 108.562 146.298L109.226 146.4L109.583 147.37L110.247 148.749C110.502 149.77 111.268 149.515 111.626 149.464C111.983 149.362 112.289 150.485 112.289 150.485L115.66 150.587C115.66 150.587 115.506 150.945 116.068 151.098C116.681 151.251 120.562 151.455 120.715 151.2C120.562 150.434 122.86 150.23 123.779 150.945C124.698 151.608 125.975 151.2 125.975 151.2L127.251 152.732L128.119 154.621L129.549 155.03L130.57 155.285L130.928 156.766L131.694 156.868L131.949 157.838C132.868 158.502 131.694 159.983 131.694 159.983V161.872L132.358 162.23L132.255 162.945L133.379 164.068L134.655 164.17L137.872 167.591L140.426 168.357L140.834 169.736L141.498 169.634L142.009 169.225L144.051 169.123L145.072 168.153L146.196 168L155.643 159.983L154.775 159.472V157.583C156.306 156.459 156.409 154.468 154.928 154.315C153.855 154.162 154.315 153.038 155.336 152.834L155.949 152.579V151.813L157.889 150.025V148.647L153.651 145.123C151.762 144.459 153.651 140.323 154.928 140.374C156.204 140.476 154.826 133.991 154.826 133.991L154.162 133.634L154.315 131.54H153.396L151.864 133.532L151.455 134.911C151.302 136.698 146.043 136.391 145.787 136.136C145.532 135.881 143.745 135.115 143.745 135.115C143.745 135.115 142.366 133.991 142.111 134.349C141.855 134.706 140.681 133.94 140.681 134.196C140.681 134.451 139.558 133.583 139.558 133.583L137.872 132.97L139.149 132.715L138.894 131.693L141.089 132.817C141.345 133.174 142.468 133.072 142.468 133.072L142.826 133.481C142.826 133.481 143.489 133.379 143.949 133.889C144.358 134.4 146.604 133.991 146.604 133.991L147.217 134.502L148.136 134.859L150.792 134.962L150.894 133.328L151.404 132.817L151.302 131.796L151.915 131.285V130.417L152.426 130.264L152.528 128.374L152.936 128.272V124.136L151.66 122.911C151.558 123.319 150.23 123.319 150.23 123.319C150.23 123.319 149.872 123.932 149.617 123.932C149.362 123.932 149.975 124.698 149.77 125.208C149.617 125.719 148.902 125.719 148.902 125.719L147.626 126.076L147.268 126.485H145.889L145.736 125.362L147.268 124.953L148.136 124.545L148.545 123.676C148.647 122.808 149.668 122.911 149.668 122.911C149.668 122.911 151.609 121.276 151.711 120.511C151.813 119.745 152.477 117.6 153.651 117.6H155.847C156.715 117.242 156.46 116.119 156.46 116.119L157.583 115.966L157.736 116.579C157.736 116.579 159.268 116.732 159.421 116.476C159.575 116.221 159.932 115.608 160.341 115.864C160.749 116.119 162.128 115.251 162.128 115.251C162.23 114.638 164.323 114.893 164.323 114.893L164.579 114.128C164.579 114.128 163.149 112.136 162.894 112.136C162.638 112.136 161.26 110.911 161.106 111.37C159.728 111.013 159.83 109.123 159.83 109.123L159.319 107.898C159.319 107.183 158.043 105.753 157.787 105.906C156.511 104.936 157.43 103.864 157.787 103.762C158.145 103.659 158.962 102.485 158.962 102.485L159.37 101.259L160.8 100.851L160.953 99.7275L160.187 99.6254C160.187 99.6254 161.055 98.0935 161.464 98.0935C161.872 98.0935 164.681 98.0935 164.936 97.9403C165.192 97.7871 165.702 96.4084 165.702 96.1531C165.702 95.8977 166.366 95.7956 166.621 95.7446C166.877 95.6424 167.489 94.9786 167.643 94.6211C168.102 93.7531 167.54 91.6084 167.183 91.9658ZM190.723 119.489C190.672 119.336 190.621 119.183 190.468 119.132C190.111 118.979 189.447 119.234 189.14 119.438L189.447 119.847C189.753 119.642 190.213 119.54 190.264 119.591V119.54L190.723 119.489ZM192.919 129.753L192.409 129.702C192.358 130.111 192.46 130.621 192.868 130.672L192.97 130.162C192.97 130.162 192.919 129.957 192.919 129.753ZM194.809 127.711C194.962 128.221 195.115 128.732 195.115 128.783L195.575 128.579C195.575 128.579 195.37 128.068 195.268 127.557L194.809 127.711ZM195.932 127.302V127.2C195.932 127.047 195.881 126.842 195.779 126.638L195.319 126.893C195.37 126.996 195.37 127.149 195.421 127.251C195.421 127.404 195.472 127.557 195.575 127.659C195.677 127.711 195.779 127.762 195.932 127.711L195.83 127.2C195.83 127.251 195.881 127.251 195.932 127.302ZM191.592 130.979C191.949 130.774 192.409 130.315 192.358 131.285C192.306 132.255 191.898 131.949 191.592 132.255C191.285 132.562 191.081 131.285 191.592 130.979ZM171.115 137.617L171.166 136.851L171.983 136.953L171.932 137.668L171.115 137.617ZM171.166 139.302C171.064 138.842 170.553 138.689 170.502 138.689L170.349 139.2C170.4 139.2 170.451 139.251 170.502 139.302L170.604 139.762C170.553 139.813 170.502 139.864 170.502 139.915L170.86 140.272C171.115 139.864 171.217 139.608 171.166 139.302ZM107.694 155.234L107.183 155.693L106.928 155.898L107.183 156.102L107.796 156.511L108.102 156.102L107.745 155.847L108 155.642L107.694 155.234ZM113.719 161.413L113.515 161.872L114.026 162.128L113.872 162.332L114.23 162.689L114.894 162.025L114.587 161.821L113.719 161.413ZM90.2809 50.6041L90.7916 51.1148L90.4341 51.4722L89.9235 50.9616L90.2809 50.6041ZM105.702 66.6892L106.213 67.0977L105.906 67.5063L105.396 67.0977L105.702 66.6892ZM103.762 67.0467L103.864 68.0169H105.141C105.651 68.0169 104.732 67.4041 104.732 67.4041C104.732 67.4041 103.711 67.5063 103.762 67.0467ZM131.745 43.0467L130.877 42.9446L130.826 43.4552L131.541 43.5063L132.102 44.3743L132.511 44.068L131.949 43.1488L131.847 43.0467H131.745ZM134.043 24.9701L133.787 25.4297L134.451 25.8382L134.604 25.9403L134.706 25.8382L135.677 25.2254L135.37 24.8169L134.604 25.3275L134.043 24.9701ZM138.587 27.4211L138.179 26.9616L137.821 27.3701L138.587 28.136L138.741 27.9829L139.609 27.268L139.251 26.8594L138.587 27.4211ZM110.4 45.3446C110.349 45.0382 112.085 44.9871 112.341 45.2424C112.596 45.4977 112.443 45.9573 113.209 45.9573C113.975 45.9573 113.617 46.468 113.566 46.7233C113.464 46.9786 112.647 46.8765 112.545 46.6211C112.443 46.3658 111.166 46.2637 111.166 46.2637C111.166 46.2637 110.502 45.7531 110.4 45.3446ZM120.153 44.3743C121.481 44.7829 121.941 44.4765 122.043 44.119C122.145 43.7616 122.196 43.7105 122.706 43.6084C123.217 43.5063 122.604 42.485 122.094 42.5871C121.583 42.6892 121.072 42.4339 120.97 41.9743C120.868 41.5658 120.051 40.4424 119.949 41.3105C119.847 42.1786 119.336 42.1786 119.438 42.7914C119.592 43.3531 119.847 44.2722 120.153 44.3743ZM128.579 29.8211C128.375 29.0552 127.302 30.7914 128.426 31.0977C129.549 31.4552 130.621 31.0977 130.621 31.0977L130.877 30.5871L135.115 30.6892C135.472 30.3318 135.626 29.8211 135.626 29.8211C135.626 29.8211 136.647 29.4637 137.055 29.668C137.464 29.8211 137.158 28.4424 136.698 28.6467C136.289 28.7999 135.421 28.7488 135.421 28.7488H133.889C133.787 28.136 132.46 28.3914 132.358 28.7488C132.306 29.0552 131.796 29.1573 131.796 29.1573L129.855 29.3105C129.651 29.8211 128.681 30.1786 128.579 29.8211ZM128.732 34.0594L127.609 32.936V31.9658L127.251 31.6084L126.894 30.3829L125.77 30.0254L124.647 30.4339L123.472 31.1999L122.196 31.3531L121.532 32.119L124.238 32.3743L124.749 33.2424L126.689 33.3956L127.966 34.6722C129.141 35.1829 129.396 34.6722 128.732 34.0594ZM132.664 42.3318L133.021 41.5148L133.481 41.7701L133.123 42.536L132.664 42.3318ZM158.043 41.4637C157.889 40.7999 159.728 40.1871 160.187 40.6977C160.596 41.2084 161.821 41.3105 161.975 43.8637C162.026 44.7829 160.443 42.8935 160.443 42.8935L159.166 42.485C158.451 42.3318 158.094 41.9233 158.043 41.4637ZM149.106 43.7105C148.851 44.4765 148.749 45.4977 148.341 45.4977C147.932 45.4977 148.085 46.6211 148.085 46.6211C148.085 46.6211 149.209 46.6211 149.515 46.7233C149.872 46.8254 149.872 47.6935 149.872 47.6935C151.149 47.5914 151.66 49.3275 151.506 49.7871C151.353 50.1956 152.017 50.1956 152.017 50.1956C152.017 50.1956 152.017 51.5743 151.864 51.9318C151.711 52.2892 152.987 52.5446 153.294 53.0552C153.651 53.5658 153.141 55.302 152.885 55.4041C152.63 55.5063 153.549 55.7616 153.498 56.1701C153.396 56.5786 153.753 56.1701 153.855 56.885C153.958 57.5488 154.111 59.0297 154.111 59.0297L155.285 59.1318C155.438 58.0084 157.634 57.9573 157.992 58.1105C159.421 58.6211 160.545 60.868 160.545 61.3786C160.545 61.8892 159.626 61.9914 159.626 61.9914L159.779 64.4935C161.209 64.902 162.434 66.9956 162.23 67.3531C162.077 67.7105 163.251 67.6084 163.251 67.6084C163.404 66.0765 164.885 66.5871 164.936 67.0977C165.038 67.6084 165.294 68.7318 165.294 68.7318L165.702 69.4977L166.315 70.1105L167.234 70.0084L167.489 70.519L168.613 70.6722C168.613 70.6722 169.532 71.6935 169.634 71.9488C169.736 72.2041 171.013 72.102 171.319 72.2041C171.677 72.3063 172.187 72.5616 172.238 72.9701C172.34 73.3786 172.851 74.0935 172.851 74.0935C172.851 74.0935 173.872 74.3488 173.975 74.7063C174.077 75.0637 174.485 75.8297 174.485 75.8297L175.353 76.5446L175.455 77.3105L176.375 77.4126L176.63 78.4339L178.162 78.3318L179.03 77.719C180.153 77.1063 180.919 76.3403 180.97 75.9829C181.072 75.6254 181.226 74.3488 182.094 74.6041C182.962 74.8594 182.349 72.7148 182.349 72.7148C182.349 72.7148 181.175 71.8467 181.226 71.4382C181.328 71.0297 180.051 70.1616 180.102 69.8041C180.204 69.4467 178.979 68.7829 179.081 68.4254C179.183 68.068 178.468 67.1488 178.468 67.1488L177.192 65.9233L177.038 65.1573L176.017 65.0552L173.975 62.5531L174.077 61.8382L173.464 61.736V60.7658L172.851 60.4084L171.932 60.3063L170.043 58.2637L169.889 57.2935H168.97L169.123 55.5063C169.736 54.7403 169.379 53.2594 169.379 53.2594C169.379 53.2594 168.204 53.8722 167.592 53.6169C166.979 53.3616 167.847 52.7488 167.847 52.7488V52.085L167.336 51.5743C167.336 51.5743 165.906 51.7275 165.804 51.4722C165.702 51.2169 165.447 50.0935 165.447 50.0935L165.345 48.6126L164.732 48.3573L164.63 47.8467L163.711 47.9488V46.9275L163.2 46.7743L162.689 46.519L162.587 45.4977L160.698 45.3956L160.085 44.5275L159.421 43.5063L157.277 43.3531L156.766 42.8424L155.898 42.6892L155.285 42.4339L155.03 42.8424L153.396 42.9446L153.294 43.4552C152.579 43.8126 149.209 43.4552 149.106 43.7105ZM133.481 43.1999C133.634 43.4552 134.655 43.7105 134.655 43.7105C135.319 43.7105 135.779 44.2211 135.779 44.4765C135.779 44.7318 136.698 44.6297 136.698 44.6297L136.8 44.0169L136.136 43.1488L135.523 42.7403C135.523 42.7403 134.604 42.6382 134.604 42.3829C134.604 42.1786 133.634 42.9446 133.481 43.1999ZM133.481 46.1105L132.817 45.9573V46.7233L133.736 46.8254L133.481 46.1105ZM142.928 55.6084V54.9446C142.928 54.9446 142.826 54.2807 142.417 54.2807C142.009 54.2807 141.243 53.7701 141.396 53.4126C141.549 53.0552 139.966 52.6977 139.966 52.6977C139.966 52.6977 138.536 51.319 139.047 51.4722C139.558 51.6254 139.302 50.8594 139.302 50.8594C139.302 50.8594 138.281 51.0126 138.026 50.9616C137.77 50.8594 137.872 50.0935 137.872 50.0935C137.872 50.0935 136.851 49.8382 136.851 50.0935C136.851 50.3488 137.209 50.3488 137.362 50.8594C137.515 51.3701 137.464 52.2382 138.23 52.3914C138.996 52.5446 139.149 52.7488 139.251 53.1063C139.353 53.4637 140.272 53.5148 140.272 53.5148L140.936 53.8722L142.928 55.6084ZM143.592 57.9063C143.489 57.5488 143.336 56.3743 143.847 56.4254C144.358 56.5275 144 56.4254 144.613 56.6807C145.226 56.936 145.277 56.2722 145.277 56.2722H146.196L147.37 57.2424L147.217 58.0084L146.349 58.1105C145.941 57.4467 145.072 57.702 145.226 58.2637C145.379 58.8765 144.817 59.9999 144.46 60.0509C144.102 60.1531 143.03 60.1531 143.081 59.6424C143.234 59.1318 143.592 57.9063 143.592 57.9063ZM157.583 69.6509L158.196 67.7616C157.328 67.6084 157.532 66.6382 157.532 66.6382C157.43 65.8722 156.255 65.0041 155.847 65.2594C155.438 65.5148 155.592 63.4722 155.592 63.4722C155.592 63.4722 156.358 62.9616 156.715 63.2169C157.072 63.4722 153.804 58.9275 153.141 59.336C152.477 59.7446 150.945 58.9275 150.996 58.1105C151.098 57.3446 147.932 54.7403 147.932 54.7403C147.932 54.7403 146.911 54.0765 146.758 54.5871C146.604 55.0977 146.247 55.4552 146.758 55.7105C147.268 55.9658 147.166 55.302 147.779 55.8637C148.392 56.4765 149.464 57.2424 149.055 57.7531C148.647 58.2637 148.136 58.468 148.136 58.468L148.749 59.1829H149.668L149.821 60.6637C149.821 60.6637 150.843 61.1743 151.098 61.7871C151.353 62.3999 151.353 62.7573 151.098 63.0637C150.843 63.4211 150.332 64.0339 150.434 64.5956C150.536 65.2084 151.2 65.4637 151.2 65.4637L151.864 65.5658L152.375 65.8211V66.9446C153.038 66.7914 154.162 67.7105 154.06 68.3233C153.958 68.936 154.213 68.5786 155.081 69.1914C155.949 69.8041 155.694 69.9063 156.255 70.3148C156.817 70.6722 157.328 70.4169 157.583 69.6509ZM138.077 80.6807C138.077 80.936 137.923 81.2935 138.434 81.3956C138.945 81.4977 139.864 81.0382 139.966 81.5488C140.068 82.0594 140.068 82.4169 140.732 82.6722C141.396 82.9275 141.855 83.0297 142.366 83.0297C142.877 83.0297 144 82.8765 144 82.8765C144 82.8765 145.226 83.0807 145.43 83.285C146.349 84.2552 146.962 84.5105 147.217 84.0509C147.472 83.6424 147.115 82.6722 147.064 82.3148C146.962 81.9573 145.787 80.3233 145.379 80.6807C144.97 81.0382 144.868 80.6807 144.102 80.936C143.336 81.1914 141.702 81.0382 141.651 80.6807C141.549 80.3233 140.375 80.1701 140.375 79.8126C140.375 79.4552 139.506 79.0467 139.609 79.5573C139.711 80.068 138.996 80.3233 138.843 80.1701C138.587 79.9658 138.077 80.6807 138.077 80.6807ZM133.838 81.5999L133.736 82.2126L134.655 82.3148C134.655 82.3148 135.064 82.6722 135.064 82.9275C135.064 83.1829 135.677 83.4382 135.983 83.4382C136.341 83.4382 137.26 82.7233 137.26 82.7233C137.26 82.7233 137.668 81.4977 137.362 81.5999C137.004 81.702 136.341 82.2126 136.238 81.702C136.136 81.1914 135.115 81.4467 135.115 81.4467L133.838 81.5999ZM129.447 82.5701L129.702 82.519L129.855 82.9786L129.6 83.0807L129.447 82.5701ZM129.753 81.7531L130.264 81.6509L130.417 82.4169L129.958 82.519L129.753 81.7531ZM131.183 81.8552L131.234 82.3658L133.072 82.3148V81.8041L131.183 81.8552ZM147.728 81.4467L148.596 81.3446L148.647 81.8552L147.779 81.9573L147.728 81.4467ZM149.975 83.336L150.23 82.7233L150.689 82.9275L150.434 83.5403L149.975 83.336ZM157.379 74.7063L158.247 74.6552L158.298 75.1658L157.43 75.2169L157.379 74.7063ZM158.809 75.2169H159.319V75.6254H158.809V75.2169ZM160.341 67.9658L159.83 68.0169L159.728 67.2509L160.238 67.1999L160.341 67.9658ZM159.83 78.6892H160.341V79.302H159.83V78.6892ZM160.953 78.9956L161.413 79.1999L161.158 79.7616L160.698 79.5063L160.953 78.9956ZM158.451 72.2041C158.962 72.2041 158.298 74.1956 159.626 73.9914C161.004 73.8382 159.728 74.6041 160.749 74.6552C161.77 74.7573 161.515 73.8892 161.872 73.2765C162.23 72.6637 162.026 72.3063 161.464 72.1531C160.851 71.9999 160.851 71.9999 160.698 71.285C160.545 70.6211 159.83 70.4169 159.83 70.4169L159.575 69.3956L158.451 70.0594L157.328 71.5403C157.328 72.7658 157.941 72.2041 158.451 72.2041ZM161.77 76.902C162.434 76.5446 163.915 76.5446 163.813 76.0339C163.711 75.5233 164.681 75.3701 164.681 75.3701L164.936 76.3914L165.702 76.902L165.804 77.8722C165.804 77.8722 166.06 77.719 165.141 77.9743C164.221 78.2297 164.783 78.6382 164.783 78.6382L162.741 78.7403L162.485 77.8722L161.77 76.902ZM150.792 84.102C151.2 83.9999 152.221 83.9488 152.426 84.2041C152.579 84.4594 151.813 84.8169 151.813 84.8169L150.792 84.9701C150.485 84.5616 150.383 84.2041 150.792 84.102ZM156.255 83.336C156.715 83.7956 153.702 83.6935 153.702 83.336C153.702 82.9786 153.958 81.8041 154.723 82.0594C155.489 82.3148 155.592 80.5275 155.592 80.5275C155.592 80.5275 154.928 80.6297 155.489 80.2722C156.102 79.9148 155.489 79.4041 155.234 79.1488C154.979 78.8935 154.723 78.4339 154.723 78.4339H155.898C156.409 78.0765 156.562 76.4424 156.562 76.4424C157.583 76.7999 158.094 76.085 158.094 76.085C158.094 76.085 158.247 76.5956 158.604 77.0552C158.962 77.4637 157.736 77.668 158.196 77.9233C158.604 78.1786 158.809 78.9446 158.604 79.1999C158.451 79.4552 157.481 79.302 157.481 78.9446C157.481 78.5871 157.123 79.3531 157.481 79.8126C157.838 80.2211 157.072 80.8339 156.868 80.8339C156.715 80.8339 155.592 80.9871 156.511 81.5488C157.43 82.0594 158.451 81.8041 158.451 81.8041C158.451 81.8041 159.217 81.702 159.472 82.1616C159.728 82.5701 159.37 82.6722 158.962 82.6722C158.553 82.6722 156.511 82.519 156.511 82.519C156.511 82.519 156 83.0807 156.255 83.336ZM166.162 73.5829C165.906 73.2254 165.651 72.9701 165.294 72.8169C164.936 72.6637 164.681 72.4594 164.375 72.4594C164.017 72.4594 163.711 72.102 163.864 71.6935C164.017 71.285 163.609 71.0807 163.609 70.7233C163.609 70.3658 163.864 70.3658 164.272 70.6211C164.681 70.8765 164.63 70.9786 164.936 71.3871C165.294 71.7956 165.447 72.2552 165.804 72.1531C166.162 72.0509 166.417 72.919 166.723 72.6637C167.081 72.4084 166.979 73.2765 166.979 73.2765L166.162 73.5829ZM165.345 74.3999C165.6 74.7573 166.111 75.0126 166.111 75.3701C166.111 75.7275 165.958 75.9829 166.468 76.0339C166.979 76.136 167.336 75.9318 167.489 76.3914C167.643 76.7999 167.643 77.5148 167.592 77.8722C167.489 78.2297 167.694 78.7403 168.102 78.7403C168.511 78.7403 168.613 78.8424 168.613 79.0977C168.613 79.3531 169.123 78.1275 169.123 78.1275C168.715 77.7701 168.358 77.0041 168.358 77.0041C168.358 77.0041 167.949 75.7786 167.949 75.6254C167.949 75.4722 167.336 75.268 167.081 75.2169C166.826 75.1148 166.417 74.3488 166.417 74.3488L165.345 74.3999ZM170.86 88.3403L170.502 87.5743C170.502 87.5743 170.502 86.9105 170.655 86.5531C170.809 86.1956 170.298 85.8892 170.043 85.7871C169.787 85.685 169.889 85.0211 169.787 84.6637C169.685 84.3063 169.123 84.0509 169.123 84.0509C169.123 84.0509 168.97 82.7743 168.97 82.519C168.97 82.2637 168.204 81.9063 168.46 81.6509C168.715 81.3956 168.868 81.0382 169.123 80.885C169.379 80.7318 168.868 79.5063 169.277 79.7616C169.685 80.0169 169.685 80.4765 169.889 80.7829C170.043 81.1403 169.787 82.3148 170.247 82.5701C170.655 82.8254 170.145 83.6935 170.86 83.6935C171.523 83.6935 171.115 85.3275 171.115 85.3275C171.115 85.3275 170.962 86.5531 171.37 86.6041C171.779 86.7063 171.523 88.7488 171.523 88.7488L170.86 88.3403ZM171.115 94.9275L171.37 94.4169L171.83 94.6722L171.575 95.1828L171.115 94.9275ZM171.677 92.119L172.187 92.1701L172.136 92.885L171.626 92.7828L171.677 92.119ZM170.604 89.2594L169.94 89.1573L168.409 89.4126L167.54 91.0467C167.54 91.0467 167.949 91.302 168.306 91.9148C168.664 92.5275 168.817 96.0509 167.796 96.6637C166.775 97.2765 167.898 96.919 167.898 96.919L167.745 98.8084C168 99.6765 168.409 99.2169 168.664 98.8084C168.919 98.3999 169.175 98.2977 169.532 97.8382C169.889 97.4297 170.4 96.6126 170.451 96.0509C170.553 95.4382 170.962 94.519 170.706 94.2637C170.451 94.0084 170.962 92.7828 170.962 92.7828C170.962 92.7828 171.319 92.068 170.962 91.4041C170.604 90.6892 171.064 89.9233 171.319 89.6169L170.604 89.2594ZM166.877 80.4765H165.6C165.6 80.4765 166.009 80.6297 164.834 79.5063C163.66 78.3829 162.894 79.7616 162.894 79.7616L161.515 79.9148V81.2935L160.851 81.5488L160.953 82.4169L161.872 82.3148C161.872 82.3148 161.872 83.336 162.128 82.9275C162.383 82.519 164.528 83.0297 164.323 84.0509C164.272 84.4594 166.468 85.5829 166.213 86.9616C167.336 87.1148 167.081 88.2382 167.081 88.2382L168.511 88.3914L168.919 87.5233L169.328 87.6254V87.1148L168.409 86.8594L168.255 84.102L167.643 83.6935L167.796 82.9786L167.132 82.7233L167.489 81.5999L166.877 80.4765ZM163.711 101.617L164.221 101.413L164.017 101.004L163.915 100.698L163.66 100.851L163.047 101.208L162.485 100.851L162.23 101.311L162.894 101.719L163.047 101.821L163.149 101.719L163.66 101.464L163.711 101.617ZM165.958 100.493L166.877 100.647L166.979 100.136L166.06 99.9828L165.958 100.493ZM164.221 111.523C163.864 111.013 165.906 110.145 166.264 111.166C166.621 112.187 166.264 112.034 165.906 111.932C165.6 111.83 164.732 112.187 164.221 111.523ZM155.438 128.119H156.051V129.753H155.438V128.119ZM159.37 143.898C159.217 144.562 158.604 144.919 158.247 144.664C157.889 144.408 158.655 145.072 158.86 145.43C159.013 145.787 159.523 145.787 159.728 145.43C159.881 145.072 159.83 144.306 159.983 143.949C160.136 143.642 159.472 143.54 159.37 143.898ZM161.26 147.37L162.026 147.728L162.128 149.208C163.149 150.23 166.468 149.362 166.468 149.106C166.468 148.851 166.315 145.94 166.315 145.94L165.906 145.532L165.804 143.387C166.162 142.264 164.17 140.63 164.017 140.987C163.864 141.345 162.741 141.089 162.741 141.396C162.741 141.753 162.077 143.438 162.383 144.051C162.741 144.664 162.128 144.664 162.026 145.276C161.923 145.787 161.055 146.808 161.26 147.37ZM137.362 128.936L137.106 128.528L136.392 128.936L136.698 129.396L137.362 128.936ZM124.392 130.621C123.983 131.03 124.085 131.387 124.392 131.693ZM127.047 132.715L127.609 131.745L127.149 131.591L126.536 132L126.792 132.255L127.047 132.715ZM126.536 105.804C126.894 106.57 126.792 107.693 128.068 108.562C128.477 108.868 127.813 109.43 127.404 109.174C126.996 108.919 125.77 107.03 125.77 107.03V105.906C126.026 105.242 126.383 105.498 126.536 105.804ZM122.043 110.298C122.247 111.064 122.196 109.072 122.553 109.174C122.911 109.276 122.655 107.949 122.655 107.949L121.123 109.072C121.838 109.174 121.941 109.94 122.043 110.298ZM117.447 115.813C117.345 116.834 116.068 117.191 116.068 117.191L115.149 116.936L114.638 116.528L114.536 115.302L115.302 115.2L115.455 115.711L117.447 115.813ZM116.068 105.396V104.17L115.915 103.047L114.638 102.434L113.719 103.302L113.566 104.528V105.293L112.698 105.447L112.545 107.796L111.881 108.051L111.983 108.919L110.145 109.43L109.992 110.553L109.328 110.962L108.97 111.983L108.562 114.485C108.562 114.485 109.328 115.966 109.736 115.251C110.145 114.587 110.86 114.485 110.86 114.485L111.115 113.872L113.413 113.974C113.566 113.004 114.689 113.362 114.689 113.821C114.689 114.23 115.558 113.923 115.558 113.923L116.17 112.953H117.089L117.192 111.932L117.6 111.676V110.145C118.979 109.736 118.775 108.408 118.775 108.408L119.132 108L118.979 107.387C118.315 107.132 118.621 106.519 119.081 106.672C119.489 106.825 118.468 105.906 118.468 105.906C117.958 106.315 117.549 105.396 117.549 105.396H116.068ZM112.187 101.872L111.523 102.025L109.992 103.506L109.889 104.17L109.481 104.783L108.97 106.059L107.183 106.162L106.826 107.693L107.081 109.021L108.613 109.634L108.766 108.766L109.277 108.511L109.379 107.642L109.736 107.03L110.247 106.417L110.4 105.753L111.268 105.242L112.289 105.038L112.698 104.528L112.851 103.506L112.953 102.74L113.311 102.179L114.332 101.77V100.136H113.821L113.719 99.5233L112.8 99.4211L112.596 99.8807H112.187L112.085 100.545H112.596L112.698 101.106L112.341 101.413L112.187 101.872ZM85.2256 112.238C85.2256 112.442 85.0724 112.596 84.8682 112.596C84.6639 112.596 84.5107 112.442 84.5107 112.238C84.5107 112.034 84.6639 111.881 84.8682 111.881C85.0724 111.881 85.2256 112.034 85.2256 112.238ZM85.1746 122.093C85.1746 122.298 85.0214 122.451 84.8171 122.451C84.6128 122.451 84.4597 122.298 84.4597 122.093C84.4597 121.889 84.6128 121.736 84.8171 121.736C85.0214 121.736 85.1746 121.889 85.1746 122.093ZM84.2554 120.664C84.4597 120.664 84.6128 120.511 84.6128 120.306C84.6128 120.102 84.4597 119.949 84.2554 119.949C84.0511 119.949 83.898 120.102 83.898 120.306C83.898 120.511 84.0511 120.664 84.2554 120.664ZM83.2341 122.706L82.5192 122.808V123.421L83.2341 123.319V122.706ZM84.0001 118.315L83.3873 118.417L83.3363 119.081L84.0001 119.183V118.315ZM83.8469 113.668L83.898 113.055L82.6214 113.923L81.8043 113.413V115.455L83.132 117.293L83.6426 116.068L83.8469 115.302L83.2341 115.047L83.3363 113.77L83.8469 113.668ZM83.3363 106.417L81.8043 106.264L81.9065 106.876H82.315C82.9788 108.102 82.4171 111.013 82.4171 111.013C82.4171 111.013 81.3958 111.115 81.2426 110.604C81.0894 110.093 80.6299 111.728 80.9873 111.983C81.3448 112.238 82.5192 111.983 82.6214 112.953C82.7235 113.923 83.3873 112.34 83.3873 112.34L83.3363 106.417ZM117.549 89.3616H116.63L116.477 87.4722L116.987 87.1148V86.1446H114.026L113.923 85.1743L114.332 84.919L113.668 84.6637L113.158 85.3275L113.004 86.0935L112.136 86.2467V86.6552H111.523V87.7786L109.123 89.7701L104.375 89.6169C104.017 90.3828 103.2 89.5148 103.2 89.5148C103.047 89.0041 101.821 89.5148 101.821 89.5148C101.821 90.485 100.187 89.1063 100.187 89.1063L97.2256 86.9616C95.5405 85.4297 92.9873 87.3701 92.8852 87.8297C92.9873 89.0552 90.9448 88.085 90.9448 88.085C90.9448 88.085 89.2597 87.5743 89.0043 88.2382C88.749 88.902 87.6256 88.7488 87.6256 88.7488L87.4724 89.1063L86.6043 89.2594L86.4511 89.7701L85.4299 89.9233L87.9831 89.8211C88.6469 89.719 87.7277 91.302 87.3192 91.1999L86.1448 91.302L85.7363 91.7105H84.6128L84.1022 92.4254L82.4682 92.3233C82.4682 92.3233 81.549 93.0892 81.6001 93.3446C81.7022 93.5999 81.4469 94.3658 81.1916 94.3658C80.9363 94.3658 80.4256 95.1318 80.5788 95.3871C80.732 95.6424 80.0682 96.5105 80.0682 96.5105L79.915 97.3786L79.4043 97.5318V99.8807L78.3831 100.596V101.617L76.8511 103.251L77.0043 104.63L75.7277 106.008L75.8809 107.387L75.115 107.642L74.9618 108.255L74.6043 110.042L75.4724 110.145C75.8809 109.991 75.8299 111.268 75.4724 111.421C75.115 111.574 74.1958 111.932 74.7065 112.289C75.2171 112.647 73.3277 112.545 73.3277 112.034C73.3277 111.523 72.3065 111.064 72.0511 111.268C71.7958 111.421 71.3873 110.502 71.3873 110.502C70.4682 109.532 67.5575 110.604 67.5575 110.604L67.149 111.983C66.2299 112.136 65.6171 113.719 65.6171 113.719C64.8511 113.974 64.2384 114.945 64.4937 115.2C64.749 115.455 64.0852 115.557 64.0852 115.557V117.447L63.6767 118.059L63.7788 120.102C64.2894 120.102 64.1873 121.072 64.1873 121.072C63.3192 121.174 63.5235 122.298 63.5235 122.298L61.7363 122.911L61.3788 123.421L59.1831 123.319L58.5703 123.932L57.9575 123.319H53.7192L53.566 122.911L52.698 122.757L52.5958 121.787L51.3192 121.889L51.0639 122.4L49.6852 122.502C49.7873 123.37 48.3065 124.647 48.1533 124.289C48.0001 123.932 47.0299 123.013 47.4894 122.808C47.898 122.655 49.0214 122.451 49.0214 122.451V121.838L45.8554 121.736L45.498 122.247L44.2214 122.349V123.728L43.6086 123.881C43.2001 124.136 43.7107 125.106 43.7107 125.106C44.3235 125.719 43.6086 126.638 43.6086 126.638C43.098 127.149 44.0171 128.119 44.0171 128.119C44.6809 128.272 43.6086 128.783 43.6086 128.783C43.7618 129.651 44.2724 129.906 44.2724 129.906C43.7618 130.774 44.6299 131.183 44.6299 131.183L44.732 132.664L45.3448 133.021V133.991L45.7022 134.604H47.0809L46.9788 132.459C45.8043 131.081 48.0001 130.723 48.1022 131.234C48.2043 131.745 49.1235 132 49.1235 132C49.2767 133.276 50.7575 134.042 51.166 132.766C51.5746 131.489 51.932 132.255 52.1873 132.868C52.4426 133.481 54.0767 134.962 54.0767 134.962H55.3533L55.5065 136.187C56.9363 136.085 57.3958 136.289 57.9575 138.23C58.5703 140.221 60.1533 140.732 60.1533 140.732L61.3277 140.63C61.3277 139.608 62.5022 140.783 62.5022 141.345C62.5022 141.855 64.8001 143.847 64.8001 143.847L67.098 144.357L69.2426 146.093L70.8767 145.94H71.5405C71.949 144.459 73.9916 146.042 74.1958 146.553C74.349 147.064 75.7277 147.932 75.8809 147.523C76.0341 147.115 77.0043 147.37 77.1575 148.647C77.3107 149.923 77.9235 149.668 77.9235 149.668L82.7746 149.566L84.4597 148.085L88.8001 147.983C90.9958 147.881 89.6682 144.868 89.2086 144.868C88.4426 144.255 89.4639 141.753 89.4639 141.753L83.2852 135.983C81.8554 135.983 83.132 133.889 83.132 133.889C84.2554 133.174 82.8767 132.102 82.8767 132.102C83.0299 131.081 82.2639 129.855 82.2639 129.855C80.732 128.834 81.1405 126.842 81.1405 126.842V125.464C79.8639 124.238 81.6511 124.085 81.6511 124.085C82.2639 123.064 81.2426 122.298 81.2426 122.298L81.1405 121.174L79.7618 121.021L79.6086 116.987L76.5448 112.596C75.932 112.442 76.3916 111.37 76.3916 111.37C77.1575 110.962 76.2384 109.889 76.2384 109.889L76.1363 108L77.9235 107.847L78.332 107.183H79.2001L79.098 104.936C79.5065 103.813 80.5277 104.425 80.5277 104.425L81.7022 104.528L82.366 103.251L82.5192 102.23L81.6001 102.128C80.5788 101.515 81.0894 99.268 81.0894 99.268C82.7235 96.868 84.5618 98.2467 84.5618 98.2467L85.7363 98.1446C87.5235 99.3701 85.8894 101.566 85.8894 101.566C85.532 102.076 85.7363 103.711 85.7363 103.711L86.1448 106.468L85.0214 107.438C84.1022 107.949 84.1022 109.174 85.1235 109.43C85.7873 109.532 85.532 111.166 84.5107 110.042C82.9788 110.042 85.3788 111.421 84.6639 111.064C86.1958 111.83 85.8384 110.4 85.8384 110.4L87.8809 108.766C88.6469 108.153 90.0256 110.042 90.0256 110.298C90.0256 110.553 93.3958 110.4 93.3958 110.4C94.315 111.013 94.6724 112.545 94.6724 112.545C95.5916 111.319 97.5831 112.442 96.1022 113.157C97.4809 114.025 97.4809 114.791 97.4809 114.791C98.6043 114.434 98.6043 115.302 98.6043 115.557C98.6043 115.813 98.9618 114.281 98.9618 114.281C97.6852 113.311 100.647 113.004 99.8299 114.689L99.3192 115.455L100.187 116.119L100.289 118.111C102.179 117.957 101.668 115.608 101.668 115.608L102.536 115.455C102.536 114.689 103.149 115.098 103.149 115.098C102.536 112.187 104.528 111.676 104.528 111.676C105.651 111.421 105.702 109.072 105.702 109.072C104.936 108.715 105.345 107.54 106.213 108.562C107.081 109.583 105.702 106.468 105.702 106.468L105.038 105.855L104.119 105.753L104.017 104.783H102.485L102.23 106.008L101.668 106.264L101.515 105.906L101.26 106.876H99.7277L99.6256 105.855L100.545 105.6L100.902 105.089L101.158 103.711H102.281L103.711 103.302C103.813 101.821 104.579 102.179 104.579 102.179L105.855 103.2L105.958 103.711L105.447 103.966L105.345 104.681L105.6 105.651H106.264C106.519 104.272 108.306 104.272 108.817 105.14L109.328 103.915C108.153 103.302 109.328 102.383 109.634 102.791C109.992 103.2 110.758 101.668 110.758 101.668C110.758 101.668 111.37 102.434 110.758 101.413C110.145 100.391 111.166 99.8807 111.166 99.8807C111.013 98.8594 112.289 99.0126 112.289 99.0126L112.392 97.6339L111.217 97.5318C110.962 98.7573 109.941 97.685 110.451 97.4297C110.962 97.1743 111.472 96.6637 111.472 96.6637V95.7956L111.983 95.6424L112.085 94.7743H113.362L114.485 94.2637L114.741 93.8552L115.915 93.7531L117.6 92.2211L117.447 91.5573C116.426 91.5573 117.447 90.7914 117.447 90.7914L117.549 89.3616ZM71.4384 166.825L70.7746 165.804L71.7958 165.957L72.8682 166.876L73.3277 168L72.715 168.357L72.3575 167.847L71.5405 167.591L71.4384 166.825ZM52.698 140.987L53.1065 142.162L53.7192 142.621L54.2809 143.898L53.9746 144.511L53.0043 143.642L52.3405 142.672L51.9831 141.906L51.4214 140.374L52.698 140.987ZM47.5916 136.391H47.1831V137.259H47.8469V138.383H48.3575L48.2554 137.106L47.5916 136.851V136.391ZM114.383 83.8977L114.894 83.7956L114.996 84.3063L114.485 84.4084L114.383 83.8977ZM114.996 83.5914L115.149 83.0807L115.813 83.285L115.711 83.7956L114.996 83.5914ZM116.221 83.0807L116.272 82.5701L115.711 82.468L115.609 82.9786L116.221 83.0807ZM117.089 81.9573H117.753V82.468H117.089V81.9573ZM121.43 82.5701L121.481 82.0594L122.094 82.1105L121.992 82.6211L121.43 82.5701ZM123.115 82.9275L123.166 82.4169L122.553 82.3148L122.502 82.8254L123.115 82.9275ZM123.728 82.9786H124.392V83.4892H123.728V82.9786ZM124.494 83.8467V84.4594L125.004 84.4084V83.7956L124.494 83.8467Z" fill="#D69D36"/>
</g>
<defs>
<clipPath id="clip0_1006_29">
<rect width="240" height="204.255" fill="white" transform="translate(0 17.8723)"/>
</clipPath>
</defs>
</svg>
